<svg xmlns="http://www.w3.org/2000/svg" id="Layer_1" width="252" height="252" viewBox="0 0 252 252"><path d="M57.8 164.9a31.1 31.1 0 0 0-7.6.8v.2a1.3 1.3 0 0 0 .7.9l2 1.1 2.6.9 2.8.9 2.4.6 1.5.2h2.1l2.5-.4a15.7 15.7 0 0 0 2.3-.9 4.9 4.9 0 0 0 1.7-1.4 23.6 23.6 0 0 0-6.3-2.2 29.9 29.9 0 0 0-6.7-.7z"/><path d="M126.2.2a126 126 0 1 0 126 126 126 126 0 0 0-126-126zm82.1 69.5v.3a3.7 3.7 0 0 1-.1 1.4q-.1.9-.3 2.1l-.3 2a7.8 7.8 0 0 1-.3 1.4 15 15 0 0 0-.9 1.8l-.6 1.9-.6 2a10.7 10.7 0 0 1-.7 1.9 30.7 30.7 0 0 1-1.7 3.1 21 21 0 0 0-1.5 3l-19.8 27.5-.2.5-.3.3-.3.3a1.1 1.1 0 0 0-.4.5l-1.7 2.2-2 2.9-2.2 3.2c-.7 1.1-1.4 2.2-1.9 3.2a18.8 18.8 0 0 0-1.4 2.9 6 6 0 0 0-.5 2.3c0 .3-.3.6-.3.8a1.4 1.4 0 0 1 .2.7c-.1 0-.2.1-.2.4a.5.5 0 0 0 .2.4v10a3.6 3.6 0 0 1-.2 1c-.2.4-.2.8-.4 1.2s-.5.8-.6 1.2-.4.8-.4 1.1v1.6a.8.8 0 0 1 0 .5c-.2.2-.2.5-.4.7l-.7.8c-.2.3-.5.4-.5.5v.3c0 .1.6.3.7.5s.9.3.9.4v2.8a23.3 23.3 0 0 1-.6 3.5c-.2 1.1-.6 2.3-.8 3.4s-.5 2.3-.6 3.5a20.9 20.9 0 0 0-.4 3.5c0 2.1.1 4.2.3 6.2a38.8 38.8 0 0 0 1.1 6.1 27.8 27.8 0 0 0 2.1 5.7 22.2 22.2 0 0 0 3.4 5.2 3.2 3.2 0 0 1-1.3.8l-1.6.7-1.7.5h-1.9l-1-.3-1.2-.2-1-.3h-.7l-.8-.3-.6-.5a2.4 2.4 0 0 1-.3-.7 26.4 26.4 0 0 0 .1-4 29.7 29.7 0 0 0-.3-4.2c-.1-1.4-.3-2.8-.5-4.3s-.4-2.7-.5-4-.1-.3-.2-.6l-.2-.6c0-1.1.1-2.3.1-3.6s0-2.7-.1-4a25.7 25.7 0 0 0-.6-4 12.8 12.8 0 0 0-1.4-3.4 3.8 3.8 0 0 0-1.5 1.8 26.8 26.8 0 0 0-.7 2.7c-.3 1-.2 1.9-.5 2.9s-.9 1.7-.9 2.3v7.5c0 2.8-.2 5.6-.1 8.2a73.6 73.6 0 0 0 .6 8.1l.4.4.8.6.8.7a.9.9 0 0 1 .3.6c0 .2-.3.5-.8.8a7.5 7.5 0 0 1-1.8.8 10.4 10.4 0 0 1-2 .8l-1.3.5h-.2l-4.7-2.6a.4.4 0 0 1-.2-.5v-.6a27.9 27.9 0 0 1 0-2.9 29.1 29.1 0 0 0 .1-3 23.4 23.4 0 0 0-.3-3.8c-.1-1.2-.4-2.5-.6-3.7l-.6-3.7c-.1-1.2-.2-2.5-.2-3.9a31.1 31.1 0 0 1 .1-3.2 23.6 23.6 0 0 1 .4-2.8c.1-.9.3-1.8.5-2.8s.4-2 .6-3.2a.8.8 0 0 0 0-.7 2 2 0 0 1-.1-.7l-1.9.2-1.8.5-1.9.6-1.9.6-1.4.2h-2l-1.1-.2h-7a44.3 44.3 0 0 0-5.2-.2h-2.4a3.5 3.5 0 0 0-2.3.9v5.1c-.1 1.7-.1 3.4-.2 5.1s-.2 3.3-.2 5-.2 3.4-.2 5.2v5c0 .6.7 1.1 1.1 1.7a11.5 11.5 0 0 1 1.4 1.7 6.6 6.6 0 0 1 1.2 1.7 4.1 4.1 0 0 1 .5 1.8v.4a10.7 10.7 0 0 1-4 .4c0 .4 0 .7-.3.7h-2.7a8.2 8.2 0 0 1-2.2-.2 3.7 3.7 0 0 1-1.8-.8 2.3 2.3 0 0 1-.8-1.9 5 5 0 0 1 .2-1.2l.3-1.3.3-1.3a6.6 6.6 0 0 0 .1-1.4 23.6 23.6 0 0 0-.2-3.8c-.2-1.2-.4-2.4-.7-3.6s-.5-2.6-.8-3.8a25.3 25.3 0 0 1-.7-3.9h-.4c-.3 0-.4.8-.6.9l-.3.7-.4.5-1.5 2.3-1.5 2.2a24.4 24.4 0 0 0-1 2.4 8.4 8.4 0 0 0-.4 2.7 4.5 4.5 0 0 0 .3 1.6 5.2 5.2 0 0 0 .7 1.5l.7 1.2.4.5a1 1 0 0 1-.5.8 2.3 2.3 0 0 1-1 .4l-1.3.3h-4.3a2.3 2.3 0 0 1-1-.4 2.2 2.2 0 0 1-.7-.9 9.1 9.1 0 0 1-.6-1.6 9.8 9.8 0 0 0-.5-1.6 4.4 4.4 0 0 1-.2-1.6 2.8 2.8 0 0 1 .4-1.5 12.9 12.9 0 0 1 .9-1.6 14 14 0 0 0 1-1.6 5.5 5.5 0 0 0 .9-1.4l2.4-5.8 2.4-5.9.5-.7.5-.7a3 3 0 0 0 .4-.8 1.1 1.1 0 0 0 .2-.8q0-.6-.3-.6h-1.3l-8.9 2.4a3.2 3.2 0 0 1-1.3.5l-1.7.4a7.6 7.6 0 0 0-1.6.6 1.2 1.2 0 0 0-.7 1 1.2 1.2 0 0 0 .3.9c.1.3.4.5.6.7l.8.5.8.6-.4.5-1.3-.9-1.4-.8-1.5-.6a3.9 3.9 0 0 0-1.5-.2 12.2 12.2 0 0 0-3.7.5l-4 1.1-4 1.1a15.1 15.1 0 0 1-4.2.5 17.7 17.7 0 0 1-3.4-.4 37 37 0 0 1-4.9-1.1c-1.7-.5-3.5-1-5.3-1.7a39.3 39.3 0 0 1-5-2.2 15.3 15.3 0 0 1-3.6-2.7 4.1 4.1 0 0 1-1.5-2.9 4.7 4.7 0 0 1 1.1-3.3 7.1 7.1 0 0 1 2.8-1.6 18.3 18.3 0 0 1 3.4-.2c1.2 0 2.4.4 3.3.4h4a2.4 2.4 0 0 1 1.3-.3c.6.1 1.4 0 2.3.2l2.5.3 2 .2a7 7 0 0 1 1.9.6l1.8.8 1.8.8a6 6 0 0 0 2 .3 7.7 7.7 0 0 0 3.9-1.1 30 30 0 0 0 4.1-2.5l3.9-3.1 3.2-2.7 1.8-1.2a11.8 11.8 0 0 0 1.9-1.1l1.7-1.2 1.5-1.7a48.3 48.3 0 0 0 2.6-4.5 28.2 28.2 0 0 1 2.6-4.4l1.3-1.3 1.6-1 1.6-.8 1.6-.9c1.2-.9 2.4-1.7 3.5-2.7l3.5-2.9 3.3-2.9c1.1-1 2.2-2 3.4-2.9a34.4 34.4 0 0 1 3.8-2.2l3.9-1.8 2.4-1.3 2.5-1.3 2.5-1.1a13.4 13.4 0 0 1 2.7-.7l22.2-3.3a9 9 0 0 0 3.4-1.1 17.9 17.9 0 0 0 3.4-2.2 27 27 0 0 0 3.1-2.8l2.9-3.2 2.7-3.2 2.3-2.8 7.6-8.9q.1 0 .3-.3l.6-.5.5-.5.3-.3 2-3.2c0-.1.1-.1.2-.2l.4-.2.4-.3c.1-.1.2-.1.2-.2s.2-.1.4-.4l.4-.4 1.2-1.6 1.4-2c.4-.7.9-1.3 1.3-1.9a15 15 0 0 0 .9-1.8 12.1 12.1 0 0 0 .9-2c.2-.6.4-1.4.7-2.1s.5-1.4.7-2.1 1-1.5 1-2.2v-6a5 5 0 0 0-1.1-3 9.2 9.2 0 0 0-2.6-2.6 10.6 10.6 0 0 0-3.3-1.8 8.1 8.1 0 0 0-3.2-.7 22.5 22.5 0 0 0-5.8.7 11.5 11.5 0 0 0-5 2.6 9.6 9.6 0 0 0-1.5 1.4l-1.6 1.9-1.7 2-1.8 1.8a10.2 10.2 0 0 1-1.8 1.3 4.1 4.1 0 0 1-1.8.5 1.6 1.6 0 0 1-1.1-.5 1.3 1.3 0 0 1-.5-1.1v-.4a1.1 1.1 0 0 1 .1-.5c0-.2.1-.5.1-.8s.1-.5.2-.7v-.5a4.7 4.7 0 0 0-.2-1.7l-.6-1.3-.6-1.2a2.5 2.5 0 0 1-.2-1.2 1 1 0 0 0 .8-.3c.2-.1.3-.4.4-.6l.5-.7a1 1 0 0 1 .8-.6c0-.1.2-.1.5-.1h2.3a1 1 0 0 0 .9-.4l.7-.6a.1.1 0 0 1 .2 0h.2a.5.5 0 0 1 .2.4l.2.4a.8.8 0 0 1 .4-.4l.6-.3 1.1-.7 1.4-.8a5.7 5.7 0 0 0 1.3-.8l1.1-.6.6-.4a12 12 0 0 1 2.1-1.2l1.7-.7 1.9-.2h6.4l1.5.5 1.5.3 1.5.3 1.6.5a17.7 17.7 0 0 1 4.5 3 14.3 14.3 0 0 1 3.1 4.2 16.6 16.6 0 0 1 1.8 5 24.6 24.6 0 0 1 .4 5.4v.7a2.2 2.2 0 0 1 0 .8z"/></svg>