<svg xmlns="http://www.w3.org/2000/svg" id="Layer_1" width="252" height="252" viewBox="0 0 252 252"><path d="M125.6-.4a126 126 0 1 0 126 126 126 126 0 0 0-126-126zm109 115a28 28 0 0 1-4.1 0h-3.2c-3 0-6.1-.1-9.1-.4l-9-1-9-.9c-3-.3-6.1-.4-9.1-.4a148 148 0 0 0-16.2.9 73.9 73.9 0 0 0-15.6 3.7L129 127.3a2.4 2.4 0 0 0-1.2 1.6 17.3 17.3 0 0 0-.8 2.7l-.6 2.8a7 7 0 0 1-.6 1.9 2.9 2.9 0 0 0 1.3 1.4l2.5 1.1 2.8 1.2 2.8 1.4a7.3 7.3 0 0 1 2 1.9 3.3 3.3 0 0 1 .8 2.4 1.6 1.6 0 0 1-.4 1.2l-1.2.9-1.6.7a6 6 0 0 0-1.6.8 4 4 0 0 0-1.2 1 2 2 0 0 0-.5 1.5 3.3 3.3 0 0 0 .8 2.5 7.7 7.7 0 0 0 1.9 1.6l2.3 1.3a8.7 8.7 0 0 1 2.2 1.7 23.3 23.3 0 0 1 2 3.4 22.9 22.9 0 0 1 1.2 3.7c.3 1.2.6 2.5.8 3.8s.1 2.6.2 3.9l1.3 1.3v7.1h.9l1 .2 1 .2.5.2a3.9 3.9 0 0 1 .1.9 3.4 3.4 0 0 1-.1.9 5.6 5.6 0 0 1-.4 1.2 1.7 1.7 0 0 1-.6 1 .8.8 0 0 1-.8.3h-5.2c-.2 0-.5-.5-1-.8l-1.5-.9a10.9 10.9 0 0 1-1.5-.8c-.5-.3-.9-.8-1.1-.8h-6.1a4.6 4.6 0 0 1 .6-2.9 4.9 4.9 0 0 1 1.6-1.6l2.1-.6 2.1-.4a3.4 3.4 0 0 0 1.6-.6 1.3 1.3 0 0 0 .7-1.3v-.3a.8.8 0 0 1-.1-.3 8.3 8.3 0 0 0-.8-1.8c-.4-.8-.8-1.6-1.3-2.4a12.8 12.8 0 0 0-1.5-2.5 8.6 8.6 0 0 0-1.5-1.7 4.9 4.9 0 0 0-1.3-.8l-1.9-1-1.7-1a2.2 2.2 0 0 1-.9-1.1 16.3 16.3 0 0 1-1-2.9 17 17 0 0 0-1-3.2 9.8 9.8 0 0 0-1.7-2.6 4.1 4.1 0 0 0-2.9-1 24.7 24.7 0 0 0-6 .8 23.2 23.2 0 0 0-5.7 2.2 33 33 0 0 0-4.9 3.4 24.4 24.4 0 0 0-3.9 4.6l-.3.2h-.2c-.1 0-.1 0-.1-.1a.5.5 0 0 1-.2-.4c-.1-.1-.1-.3-.2-.6s-.1-.4-.1-.6-.1-.3-.2-.3h-.3a1.4 1.4 0 0 0-1 .5l-.9 1.1a10 10 0 0 0-.8 1.4l-.9.9a4 4 0 0 1-.6-1.6c0-.4-.1-1-.1-1.6a9.2 9.2 0 0 1 .4-2.9l.9-2.8c.3-.9.6-1.5.9-2.5a15.2 15.2 0 0 0 .4-2.7h-4.8c0-1.7.2-1.8.6-2.4a7.5 7.5 0 0 1 1.6-1.5 8.1 8.1 0 0 1 2.1-1l2.1-.2a15.1 15.1 0 0 1 3 .2l2.9.4 2.9.5 2.9.2h2.3a2.5 2.5 0 0 0-1.7-1.3 10.1 10.1 0 0 0-2.5-.5l-2.7-.2c-.9 0-1.6.2-2.2-.2l-3.8-2.2h-.3a16 16 0 0 0-3.1 0 11.3 11.3 0 0 1-3.2.2 6.9 6.9 0 0 1-2.9-.7l-2.7-1.4-2.5-1.6a5.5 5.5 0 0 0-2.9-.6v6l1.6-.2 1-.3.8-.5c.4-.2.4-.4.9-.7h.6v2.7l2-.7c0 .2.2.3.2.6s.1.3.1.4a5.6 5.6 0 0 1-1.3 3.9 23.1 23.1 0 0 1-3.2 2.9 25.4 25.4 0 0 0-4.5-1.3l-4.8-.6v-7.8c0 .1-1 .3-1.7.6a7.5 7.5 0 0 0-2 1 6.8 6.8 0 0 0-1.9 1.1c-.5.4-1 .8-1 1.2v6.8a17 17 0 0 0 3-.2l1.8-.6 1.2-.6 1.2-.3h.4l.3.7c.1.4.3.8.4 1.2a9.3 9.3 0 0 1 .4 1.3 4.4 4.4 0 0 1 .2 1 3.9 3.9 0 0 1-.4 1.8 5.4 5.4 0 0 1-1.1 1.8 5 5 0 0 1-1.5 1.4 4.1 4.1 0 0 1-1.8.5h-1l-3-.5a20.9 20.9 0 0 1-3.6-.7 11.9 11.9 0 0 1-3.2-1.2 2.5 2.5 0 0 1-1.5-2.1v-11.7c0-.1.4-.4.9-.8l1.9-1.6a22.8 22.8 0 0 0 2.3-2.2 18.8 18.8 0 0 0 2.4-2.5 20.3 20.3 0 0 0 1.8-2.6 5.1 5.1 0 0 0 .7-2.6 3.7 3.7 0 0 0-1.2-2.7 11.1 11.1 0 0 0-2.7-2 28.4 28.4 0 0 0-3.2-1.4l-2.6-.9-1.3-9a14.7 14.7 0 0 0-.6-2.7 8.1 8.1 0 0 0-1.1-2.7 6.2 6.2 0 0 0-1.7-2.2 4.6 4.6 0 0 0-2.7-.8 13.7 13.7 0 0 0-3.6.4l-3.1 1.5-1.7 1-2.5 1.5-2.9 1.8-3 1.7c-.9.5-1.7 1.2-2.5 1.6s-1.3 1.1-1.6 1.1h-1l-1.7-.2a7.8 7.8 0 0 1-2.1-.4 2.3 2.3 0 0 1-1.3-.7c-.5-.3-.4-.8-.4-1.4v-1.8c0-.6-.2-.9.1-1h1.5v-.4c.1-.2.1-.5.2-.8s.1-.6.1-.9a1.1 1.1 0 0 0 .1-.5l-.8-.8-.9-.5c-.3-.1-.5-.4-.7-.6a2.3 2.3 0 0 1-.3-1.3 2.6 2.6 0 0 1 .3-1.1 6.7 6.7 0 0 1 .6-1.2c.3-.3.3-.6.7-.8a1.8 1.8 0 0 1 .8-.4v.8c0 .5.4 1 .5 1.5a1.2 1.2 0 0 0 1.2.7 1.8 1.8 0 0 0 1.1-.5 4.8 4.8 0 0 0 .9-1.1 11.1 11.1 0 0 0 .7-1.6c.1-.5.2.2.2-1.4H20.1a1.5 1.5 0 0 1-.8-.5l-1.1-.6-.9-.8a1.8 1.8 0 0 1-.4-1 4.6 4.6 0 0 1 1.1-3.2 6.8 6.8 0 0 1 2.6-1.8l3.1-1a17.1 17.1 0 0 0 2.9-.8l2.1-.9 3.4-1.6 3.3-1.5c1-.5 1.7-1.1 2.1-1.1H51a7.3 7.3 0 0 1 3.9 1 17.9 17.9 0 0 1 3.1 2.5 28.5 28.5 0 0 1 2.5 3.3l2.2 3.2a15.1 15.1 0 0 0 2.3 2.6 3.9 3.9 0 0 0 2.5 1 .8.8 0 0 0 .7-.4 1 1 0 0 1 .9-.4l1.5.3 1.5.7 1.5.7a4 4 0 0 0 1.5.3l4.1-.2 4.1-.4 4-.5a28.2 28.2 0 0 1 4.1-.2c2.5 0 4.9.1 7.3.3a38 38 0 0 1 7.1 1.6 52.1 52.1 0 0 1 5 2l5.1 2.1a45.6 45.6 0 0 0 5.2 1.8 23.3 23.3 0 0 0 5.3.7h2.6c4.3-1 8.5-1.9 12.8-2.7s8.4-1.7 12.7-2.3 8.5-1.1 12.8-1.5 8.6-.6 13-.6h8.7a45.8 45.8 0 0 1 5 .9l36.1 7.2h11.6c-.8 0-1.8 1-3.1 1.4a26.1 26.1 0 0 1-4 .2z"/></svg>